<?xml version="1.0" encoding="UTF-8"?>
<svg id="Capa_1" data-name="Capa 1" xmlns="http://www.w3.org/2000/svg" viewBox="0 0 979.59 334">
  <defs>
    <style>
      .cls-1 {
        letter-spacing: .68em;
      }

      .cls-2 {
        fill: #40929d;
      }

      .cls-3 {
        font-size: 99.89px;
      }

      .cls-3, .cls-4, .cls-5 {
        font-family: Montserrat-Bold, Montserrat;
        font-weight: 700;
      }

      .cls-3, .cls-5 {
        fill: #463f43;
      }

      .cls-4 {
        fill: #42929d;
        font-size: 35.17px;
      }

      .cls-6 {
        letter-spacing: .7em;
      }

      .cls-7 {
        letter-spacing: .7em;
      }

      .cls-8 {
        letter-spacing: -.01em;
      }

      .cls-9 {
        letter-spacing: 0em;
      }

      .cls-5 {
        font-size: 74.17px;
      }
    </style>
  </defs>
  <text class="cls-3" transform="translate(190.32 180.06)"><tspan class="cls-8" x="0" y="0">C</tspan><tspan x="71.72" y="0">OMERCIALES</tspan></text>
  <text class="cls-3" transform="translate(194.21 84.9)"><tspan x="0" y="0">TERRENOS</tspan></text>
  <text class="cls-5" transform="translate(359.29 309.51)"><tspan x="0" y="0">AL SUR DE </tspan><tspan class="cls-9" x="435.87" y="0">A</tspan><tspan x="491.94" y="0">GS</tspan></text>
  <g>
    <path class="cls-2" d="m9.31,98.79h-4.86c-1.03-20.19,9.17-50.7,37.23-69.13,30.18-19.82,72.49-18.22,101.6,8.88,2.49-2.49,4.99-4.98,7.48-7.5,1.02-1.03,2.05-1.93,3.63-1.23,1.47.65,1.64,1.91,1.64,3.33-.02,9.16,0,18.31-.01,27.47,0,2.73-.86,3.59-3.57,3.59-9.21,0-18.42,0-27.63.01-1.45,0-2.67-.28-3.24-1.77-.55-1.43.19-2.42,1.16-3.37,2.41-2.37,4.8-4.76,7.33-7.27-12.34-11.15-26.71-16.66-43.21-16.95v-5.34c2.46.15,4.93.18,7.37.46,15.68,1.78,29.24,8.13,40.64,19.05,2.19,2.1,2.2,3.26.06,5.41-1.29,1.3-2.58,2.59-3.87,3.9-.07.07-.12.18-.26.41h19.81v-19.97c-1.52,1.52-2.86,2.85-4.2,4.19-2.7,2.7-3.47,2.72-6.18.14-10.73-10.25-23.3-17.15-37.89-19.89-27.21-5.11-50.88,2.09-70.57,21.54-11.97,11.82-18.95,26.36-21.42,43-.54,3.6-.69,7.26-1.04,11.04Z"/>
    <path class="cls-2" d="m30.21,159.11c-2.49,2.51-5,5.02-7.49,7.55-.98.99-1.99,1.83-3.5,1.21-1.57-.64-1.72-1.97-1.71-3.44.02-9.1,0-18.2.01-27.3,0-2.85.82-3.67,3.64-3.68,9.15,0,18.31,0,27.46-.01,1.43,0,2.67.21,3.29,1.69.63,1.5-.18,2.53-1.18,3.51-2.41,2.37-4.79,4.76-7.27,7.23,12.33,11.12,26.67,16.63,43.18,16.93v5.55c-4.21-.48-8.41-.73-12.51-1.46-13.81-2.48-25.69-8.79-35.77-18.54-1.76-1.7-1.79-3.08-.05-4.83,1.47-1.48,2.98-2.92,4.75-4.64h-20.1v20.17c1.74-1.81,3.19-3.36,4.69-4.87,1.99-2.01,3.16-2.04,5.22-.04,10.84,10.48,23.56,17.54,38.4,20.31,27.21,5.09,50.88-2.13,70.55-21.6,11.95-11.84,18.92-26.38,21.38-43.03.53-3.55.68-7.16,1.01-10.88h4.93c.8,21.89-10.33,52.46-39.46,70.43-28.65,17.68-70.33,17.03-99.47-10.26Z"/>
    <path class="cls-2" d="m86.81,144.11c-24.96.03-45.32-20.32-45.32-45.28,0-24.97,20.35-45.31,45.32-45.29,24.9.02,45.19,20.28,45.24,45.2.05,24.96-20.27,45.35-45.23,45.37Zm-.14-5.33c22,.04,39.98-17.83,40.04-39.82.07-22.01-17.79-40-39.77-40.09-22.08-.08-40.1,17.84-40.13,39.9-.02,22,17.87,39.97,39.86,40.01Z"/>
    <path class="cls-2" d="m132.85,143.12c1.33,1.38,2.48,2.56,3.69,3.83-6.35,6.56-13.62,11.65-22.07,15.35-.73-1.65-1.39-3.16-2.12-4.83,7.68-3.47,14.49-8.13,20.5-14.35Z"/>
    <path class="cls-2" d="m59.07,35.37c.74,1.68,1.4,3.18,2.13,4.84-7.72,3.44-14.5,8.15-20.51,14.31-1.21-1.39-2.32-2.67-3.48-4.02,6.13-6.34,13.39-11.39,21.87-15.13Z"/>
    <path class="cls-2" d="m71.41,36.73c-1.79.52-3.37.98-5.09,1.48-.56-1.65-1.1-3.24-1.71-5.02,1.88-.56,3.6-1.07,5.51-1.63.44,1.76.85,3.39,1.29,5.17Z"/>
    <path class="cls-2" d="m108.94,164.51c-2.04.59-3.67,1.06-5.51,1.6-.43-1.72-.84-3.35-1.29-5.13,1.68-.5,3.29-.98,5.09-1.52.57,1.68,1.12,3.3,1.72,5.05Z"/>
    <path class="cls-2" d="m81.61,35.08c-1.75.2-3.32.38-5.05.58-.29-1.73-.56-3.38-.86-5.23,1.89-.22,3.61-.42,5.54-.65.13,1.87.24,3.53.37,5.3Z"/>
    <path class="cls-2" d="m92.29,167.89c-.13-1.92-.24-3.55-.37-5.3,1.74-.2,3.35-.38,5.06-.57.29,1.76.55,3.37.84,5.2-1.85.23-3.57.44-5.54.68Z"/>
    <path class="cls-2" d="m76.26,106.9h5.06c.09.37.17.79.29,1.19.77,2.71,3.27,4.4,5.91,4.01,2.67-.4,4.68-2.8,4.57-5.49-.1-2.75-2.3-5-5.16-5.09-3.28-.11-6.06-1.24-8.21-3.74-4.73-5.49-2.82-13.78,3.88-16.63,1.26-.53,1.64-1.17,1.53-2.43-.1-1.2-.02-2.42-.02-3.75h5.33c0,1.39.06,2.76-.02,4.13-.07,1.04.25,1.52,1.28,1.92,4.11,1.6,6.7,5.44,6.66,9.72h-5.13c-.12-.46-.22-.94-.37-1.4-.81-2.59-3.32-4.19-5.91-3.77-2.68.44-4.63,2.86-4.49,5.56.14,2.62,2.24,4.75,4.9,5.03,1.21.13,2.45.19,3.6.53,4.26,1.28,7.27,5.23,7.45,9.62.19,4.49-2.34,8.58-6.54,10.23-1.23.48-1.56,1.11-1.46,2.32.1,1.25.02,2.52.02,3.86h-5.33c0-1.35-.07-2.72.02-4.07.08-1.11-.27-1.61-1.35-2.04-4.15-1.66-6.82-5.72-6.52-9.71Z"/>
    <path class="cls-2" d="m86.68,64.33v5.05c-16.14.33-28.9,13.04-29.3,29.34h-5.05c-.84-17.52,14.95-34.85,34.35-34.38Z"/>
    <path class="cls-2" d="m121.25,98.92c.54,17.34-14.31,34.54-34.35,34.48v-5.21c7.91-.23,14.87-2.97,20.53-8.62,5.67-5.66,8.45-12.6,8.69-20.65h5.13Z"/>
  </g>
  <path class="cls-2" d="m266.54,279.15c.24-17.14,11.44-31.67,28.07-36.19,20.66-5.61,42.54,8.16,46.06,29.26,2.61,15.64-2.72,28.28-15.52,37.6-6.46,4.7-11.84,10.26-15.78,17.21-1.07,1.88-2.16,3.74-3.27,5.59-1.1,1.85-3.02,1.83-4.13-.04-1.52-2.57-2.97-5.17-4.54-7.7-3.68-5.9-8.4-10.81-14.12-14.76-8.33-5.75-13.68-13.53-15.78-23.44-.52-2.47-.66-5.02-.98-7.53Zm37.53-15.42c-8.49-.02-15.39,6.84-15.42,15.32-.02,8.46,6.89,15.4,15.35,15.41,8.47.01,15.39-6.87,15.42-15.34.03-8.47-6.86-15.37-15.35-15.39Z"/>
  <text class="cls-4" transform="translate(0 231.04)"><tspan class="cls-6" x="0" y="0">I</tspan><tspan class="cls-7" x="36.12" y="0">N</tspan><tspan class="cls-1" x="88.98" y="0">V</tspan><tspan class="cls-6" x="139.27" y="0">ERSIÓN INTELIGENTE</tspan></text>
</svg>